<?xml version="1.0" encoding="utf-8"?>
<svg viewBox="0 0 512 512" xmlns="http://www.w3.org/2000/svg" xmlns:bx="https://boxy-svg.com">
  <path d="M 167.582 154.504 m -250 0 a 250 250 0 1 0 500 0 a 250 250 0 1 0 -500 0 Z M 167.582 154.504 m -237.958 0 a 237.958 237.958 0 0 1 475.916 0 a 237.958 237.958 0 0 1 -475.916 0 Z" style="fill: rgb(216, 72, 0);" transform="matrix(-0.604571, 0.796551, -0.796551, -0.604571, 480.385573, 215.921028)" bx:shape="ring 167.582 154.504 237.958 237.958 250 250 1@2678a38e"/>
  <path d="M 484.174 256 C 484.174 382.017 382.017 484.174 256 484.174 C 129.983 484.174 27.826 382.017 27.826 256 C 27.826 129.983 129.983 27.826 256 27.826 C 382.017 27.826 484.174 129.983 484.174 256 Z M 305.52 270.943 L 305.52 149.598 C 305.52 140.064 297.719 132.264 288.185 132.264 L 259.237 132.264 L 236.18 97.594 L 166.841 97.594 L 143.785 132.264 L 114.837 132.264 C 105.303 132.264 97.502 140.064 97.502 149.598 L 97.502 270.943 C 97.502 280.477 105.303 288.277 114.837 288.277 L 288.185 288.277 C 297.719 288.277 305.52 280.477 305.52 270.943 Z M 201.511 158.266 C 225.433 158.266 244.848 177.681 244.848 201.603 C 244.848 225.525 225.433 244.94 201.511 244.94 C 177.589 244.94 158.173 225.525 158.173 201.603 C 158.173 177.681 177.589 158.266 201.511 158.266 Z M 322.855 236.273 L 374.859 236.273 L 374.859 323.814 C 372.086 323.294 369.139 322.947 366.192 322.947 C 342.27 322.947 322.855 342.362 322.855 366.284 C 322.855 390.207 342.27 409.622 366.192 409.622 C 390.114 409.622 409.529 390.207 409.529 366.284 L 409.529 184.268 L 322.855 184.268 Z M 244.848 322.947 C 220.925 322.947 201.511 342.362 201.511 366.284 C 201.511 390.207 220.925 409.622 244.848 409.622 C 268.771 409.622 288.185 390.207 288.185 366.284 L 288.185 305.612 L 253.515 305.612 L 253.515 323.814 C 250.742 323.294 247.794 322.947 244.848 322.947 Z" style="fill: rgb(216, 73, 40);"/>
</svg>