<?xml version="1.0" encoding="utf-8"?>
<svg viewBox="0 0 40 40" xmlns="http://www.w3.org/2000/svg">
  <g fill="none" fill-rule="evenodd">
    <path d="M 18.422 11 L 33.492 11 C 34.332 11 35 11.669 35 12.493 L 35 30.507 C 35 31.325 34.325 32 33.492 32 L 6.508 32 C 5.668 32 5 31.331 5 30.507 L 5 9.493 C 5 8.663 5.671 8 6.5 8 L 14.305 8 C 14.869 8 15.534 8.387 15.807 8.865 L 16.822 10.642 C 16.822 10.642 17.222 11 18.422 11 Z M 16.444 14.757 L 16.444 22.038 C 16.035 21.853 15.591 21.73 15.111 21.73 C 13.395 21.73 12 23.112 12 24.812 C 12 26.52 13.395 27.893 15.111 27.893 C 16.675 27.893 18.008 26.749 18.222 25.252 L 18.222 17.398 L 26.221 15.637 L 26.221 21.158 C 25.812 20.973 25.368 20.85 24.888 20.85 C 23.172 20.85 21.777 22.232 21.777 23.931 C 21.777 25.639 23.172 27.013 24.888 27.013 C 26.603 27.013 27.999 25.639 27.999 23.931 L 27.999 12.996 C 27.999 12.511 27.607 12.045 27.119 12.115 L 17.324 13.876 C 16.835 13.955 16.444 14.272 16.444 14.757 Z" style="fill: rgb(1, 96, 135);"/>
    <path d="M 18.422 10 L 33.492 10 C 34.332 10 35 10.669 35 11.493 L 35 29.507 C 35 30.325 34.325 31 33.492 31 L 6.508 31 C 5.668 31 5 30.331 5 29.507 L 5 8.493 C 5 7.663 5.671 7 6.5 7 L 14.305 7 C 14.869 7 15.534 7.387 15.807 7.865 L 16.822 9.642 C 16.822 9.642 17.222 10 18.422 10 Z M 16.444 14.757 L 16.444 22.038 C 16.035 21.853 15.591 21.73 15.111 21.73 C 13.395 21.73 12 23.112 12 24.812 C 12 26.52 13.395 27.893 15.111 27.893 C 16.675 27.893 18.008 26.749 18.222 25.252 L 18.222 17.398 L 26.221 15.637 L 26.221 21.158 C 25.812 20.973 25.368 20.85 24.888 20.85 C 23.172 20.85 21.777 22.232 21.777 23.931 C 21.777 25.639 23.172 27.013 24.888 27.013 C 26.603 27.013 27.999 25.639 27.999 23.931 L 27.999 12.996 C 27.999 12.511 27.607 12.045 27.119 12.115 L 17.324 13.876 C 16.835 13.955 16.444 14.272 16.444 14.757 Z" style="fill: rgb(0, 113, 161);"/>
  </g>
</svg>