<?xml version="1.0" encoding="utf-8"?>
<svg viewBox="0 0 40 40" xmlns="http://www.w3.org/2000/svg">
  <g fill="none" fill-rule="evenodd">
    <path d="M18.422 11h15.07c.84 0 1.508.669 1.508 1.493v18.014c0 .818-.675 1.493-1.508 1.493H6.508C5.668 32 5 31.331 5 30.507V9.493C5 8.663 5.671 8 6.5 8h7.805c.564 0 1.229.387 1.502.865l1.015 1.777s.4.358 1.6.358z" style="fill: rgb(1, 96, 135);"/>
    <path d="M18.422 10h15.07c.84 0 1.508.669 1.508 1.493v18.014c0 .818-.675 1.493-1.508 1.493H6.508C5.668 31 5 30.331 5 29.507V8.493C5 7.663 5.671 7 6.5 7h7.805c.564 0 1.229.387 1.502.865l1.015 1.777s.4.358 1.6.358z" style="fill: rgb(0, 113, 161);"/>
  </g>
</svg>
