<?xml version="1.0" encoding="utf-8"?>
<svg viewBox="0 0 40 40" xmlns="http://www.w3.org/2000/svg">
  <g fill="none" fill-rule="evenodd">
    <path d="M18.422 11h15.07c.84 0 1.508.669 1.508 1.493v18.014c0 .818-.675 1.493-1.508 1.493H6.508C5.668 32 5 31.331 5 30.507V9.493C5 8.663 5.671 8 6.5 8h7.805c.564 0 1.229.387 1.502.865l1.015 1.777s.4.358 1.6.358z" style="fill: rgb(1, 96, 135);"/>
    <path d="M18.422 10h15.07c.84 0 1.508.669 1.508 1.493v18.014c0 .818-.675 1.493-1.508 1.493H6.508C5.668 31 5 30.331 5 29.507V8.493C5 7.663 5.671 7 6.5 7h7.805c.564 0 1.229.387 1.502.865l1.015 1.777s.4.358 1.6.358z" style="fill: rgb(0, 113, 161);"/>
  </g>
  <path d="M 19.098 16.986 C 19.098 15.797 17.59 13.738 17.59 13.738 C 17.59 13.738 16.082 15.797 16.082 16.986 C 16.082 18.175 16.642 18.477 17.59 18.477 C 18.538 18.477 19.098 18.175 19.098 16.986 Z M 24.268 16.986 C 24.268 15.797 22.76 13.738 22.76 13.738 C 22.76 13.738 21.252 15.797 21.252 16.986 C 21.252 18.175 21.812 18.477 22.76 18.477 C 23.708 18.477 24.268 18.175 24.268 16.986 Z M 19.313 26.662 L 19.313 19.769 C 19.313 19.295 18.926 18.908 18.452 18.908 L 16.729 18.908 C 16.255 18.908 15.867 19.295 15.867 19.769 L 15.867 26.662 C 15.867 27.136 16.255 27.524 16.729 27.524 L 18.452 27.524 C 18.926 27.524 19.313 27.136 19.313 26.662 Z M 24.483 26.662 L 24.483 19.769 C 24.483 19.295 24.095 18.908 23.622 18.908 L 21.898 18.908 C 21.424 18.908 21.037 19.295 21.037 19.769 L 21.037 26.662 C 21.037 27.136 21.424 27.524 21.898 27.524 L 23.622 27.524 C 24.095 27.524 24.483 27.136 24.483 26.662 Z M 16.729 21.493 L 18.452 20.631 L 18.452 22.354 L 16.729 23.216 L 16.729 21.493 Z M 21.898 21.493 L 23.622 20.631 L 23.622 22.354 L 21.898 23.216 L 21.898 21.493 Z M 16.729 24.077 L 18.452 23.216 L 18.452 24.939 L 16.729 25.801 L 16.729 24.077 Z M 21.898 24.077 L 23.622 23.216 L 23.622 24.939 L 21.898 25.801 L 21.898 24.077 Z" style="fill: rgb(255, 255, 255);"/>
</svg>
