<?xml version="1.0" encoding="utf-8"?>
<svg viewBox="0 0 40 40" xmlns="http://www.w3.org/2000/svg">
  <g fill="none" fill-rule="evenodd">
    <path d="M 18.422 11 L 33.492 11 C 34.332 11 35 11.669 35 12.493 L 35 30.507 C 35 31.325 34.325 32 33.492 32 L 6.508 32 C 5.668 32 5 31.331 5 30.507 L 5 9.493 C 5 8.663 5.671 8 6.5 8 L 14.305 8 C 14.869 8 15.534 8.387 15.807 8.865 L 16.822 10.642 C 16.822 10.642 17.222 11 18.422 11 Z M 24.585 15.93 C 24.595 16.33 24.575 16.74 24.515 17.15 C 24.255 18.86 23.085 20.72 21.605 21.55 C 21.825 22.14 22.155 22.62 22.595 22.85 L 20.525 26.69 L 20.525 20.92 C 21.885 20.55 23.265 18.76 23.525 17 C 23.925 14.35 22.525 12 20.025 12 C 17.525 12 16.125 14.35 16.525 17 C 16.785 18.76 18.165 20.55 19.525 20.92 L 19.525 26.58 L 17.515 22.77 C 17.905 22.51 18.205 22.07 18.395 21.52 C 16.945 20.68 15.795 18.84 15.535 17.15 C 15.475 16.74 15.455 16.34 15.465 15.94 C 14.995 15.92 14.515 16.01 14.035 16.25 C 12.195 17.18 12.045 19.42 13.325 21.22 C 14.145 22.38 15.745 23.17 16.875 23.01 L 19.525 28 L 20.575 28 L 23.215 23.01 C 24.345 23.11 25.875 22.35 26.675 21.23 C 27.955 19.43 27.805 17.19 25.975 16.25 C 25.505 16.01 25.045 15.92 24.585 15.93 Z" style="fill: rgb(1, 96, 135);"/>
    <path d="M 18.422 10 L 33.492 10 C 34.332 10 35 10.669 35 11.493 L 35 29.507 C 35 30.325 34.325 31 33.492 31 L 6.508 31 C 5.668 31 5 30.331 5 29.507 L 5 8.493 C 5 7.663 5.671 7 6.5 7 L 14.305 7 C 14.869 7 15.534 7.387 15.807 7.865 L 16.822 9.642 C 16.822 9.642 17.222 10 18.422 10 Z M 24.585 15.93 C 24.595 16.33 24.575 16.74 24.515 17.15 C 24.255 18.86 23.085 20.72 21.605 21.55 C 21.825 22.14 22.155 22.62 22.595 22.85 L 20.525 26.69 L 20.525 20.92 C 21.885 20.55 23.265 18.76 23.525 17 C 23.925 14.35 22.525 12 20.025 12 C 17.525 12 16.125 14.35 16.525 17 C 16.785 18.76 18.165 20.55 19.525 20.92 L 19.525 26.58 L 17.515 22.77 C 17.905 22.51 18.205 22.07 18.395 21.52 C 16.945 20.68 15.795 18.84 15.535 17.15 C 15.475 16.74 15.455 16.34 15.465 15.94 C 14.995 15.92 14.515 16.01 14.035 16.25 C 12.195 17.18 12.045 19.42 13.325 21.22 C 14.145 22.38 15.745 23.17 16.875 23.01 L 19.525 28 L 20.575 28 L 23.215 23.01 C 24.345 23.11 25.875 22.35 26.675 21.23 C 27.955 19.43 27.805 17.19 25.975 16.25 C 25.505 16.01 25.045 15.92 24.585 15.93 Z" style="fill: rgb(0, 113, 161); pointer-events: none;"/>
  </g>
</svg>