<?xml version="1.0" encoding="utf-8"?>
<svg viewBox="0 0 40 40" xmlns="http://www.w3.org/2000/svg">
  <g fill="none" fill-rule="evenodd">
    <path d="M 18.422 11 L 33.492 11 C 34.332 11 35 11.669 35 12.493 L 35 30.507 C 35 31.325 34.325 32 33.492 32 L 6.508 32 C 5.668 32 5 31.331 5 30.507 L 5 9.493 C 5 8.663 5.671 8 6.5 8 L 14.305 8 C 14.869 8 15.534 8.387 15.807 8.865 L 16.822 10.642 C 16.822 10.642 17.222 11 18.422 11 Z M 18.033 14.045 C 17.743 15.325 18.583 17.505 20.003 17.505 C 21.413 17.505 22.253 15.325 21.963 14.045 C 21.743 13.065 20.883 12.415 20.003 12.415 C 19.113 12.415 18.263 13.065 18.033 14.045 Z M 13.903 14.945 C 13.653 16.025 14.373 17.875 15.573 17.875 C 16.773 17.875 17.493 16.025 17.243 14.945 C 17.053 14.115 16.323 13.555 15.573 13.555 C 14.823 13.555 14.093 14.115 13.903 14.945 Z M 22.763 14.945 C 22.513 16.025 23.233 17.875 24.423 17.875 C 25.623 17.875 26.343 16.025 26.093 14.945 C 25.903 14.115 25.173 13.555 24.423 13.555 C 23.683 13.555 22.953 14.115 22.763 14.945 Z M 22.173 26.375 L 23.423 22.075 C 24.203 19.585 22.713 18.055 20.003 18.055 C 17.283 18.055 15.793 19.585 16.563 22.075 L 17.823 26.375 C 18.053 27.095 19.003 27.585 20.003 27.585 C 20.983 27.585 21.943 27.095 22.173 26.375 Z M 16.363 18.415 C 16.113 18.375 15.843 18.355 15.573 18.355 C 13.263 18.355 12.003 19.645 12.653 21.755 L 13.723 25.405 C 13.923 26.025 14.723 26.435 15.573 26.435 C 16.003 26.435 16.433 26.325 16.773 26.125 L 15.653 22.335 C 15.113 20.575 15.583 19.415 16.073 18.745 C 16.163 18.635 16.263 18.515 16.363 18.415 Z M 23.633 18.415 C 23.733 18.515 23.833 18.635 23.913 18.745 C 24.413 19.415 24.883 20.575 24.333 22.355 L 23.223 26.125 C 23.563 26.325 23.993 26.435 24.423 26.435 C 25.273 26.435 26.073 26.025 26.273 25.405 L 27.343 21.755 C 28.003 19.645 26.733 18.355 24.423 18.355 C 24.143 18.355 23.883 18.375 23.633 18.415 Z" style="fill: rgb(1, 96, 135);"/>
    <path d="M 18.422 10 L 33.492 10 C 34.332 10 35 10.669 35 11.493 L 35 29.507 C 35 30.325 34.325 31 33.492 31 L 6.508 31 C 5.668 31 5 30.331 5 29.507 L 5 8.493 C 5 7.663 5.671 7 6.5 7 L 14.305 7 C 14.869 7 15.534 7.387 15.807 7.865 L 16.822 9.642 C 16.822 9.642 17.222 10 18.422 10 Z M 18.033 14.045 C 17.743 15.325 18.583 17.505 20.003 17.505 C 21.413 17.505 22.253 15.325 21.963 14.045 C 21.743 13.065 20.883 12.415 20.003 12.415 C 19.113 12.415 18.263 13.065 18.033 14.045 Z M 13.903 14.945 C 13.653 16.025 14.373 17.875 15.573 17.875 C 16.773 17.875 17.493 16.025 17.243 14.945 C 17.053 14.115 16.323 13.555 15.573 13.555 C 14.823 13.555 14.093 14.115 13.903 14.945 Z M 22.763 14.945 C 22.513 16.025 23.233 17.875 24.423 17.875 C 25.623 17.875 26.343 16.025 26.093 14.945 C 25.903 14.115 25.173 13.555 24.423 13.555 C 23.683 13.555 22.953 14.115 22.763 14.945 Z M 22.173 26.375 L 23.423 22.075 C 24.203 19.585 22.713 18.055 20.003 18.055 C 17.283 18.055 15.793 19.585 16.563 22.075 L 17.823 26.375 C 18.053 27.095 19.003 27.585 20.003 27.585 C 20.983 27.585 21.943 27.095 22.173 26.375 Z M 16.363 18.415 C 16.113 18.375 15.843 18.355 15.573 18.355 C 13.263 18.355 12.003 19.645 12.653 21.755 L 13.723 25.405 C 13.923 26.025 14.723 26.435 15.573 26.435 C 16.003 26.435 16.433 26.325 16.773 26.125 L 15.653 22.335 C 15.113 20.575 15.583 19.415 16.073 18.745 C 16.163 18.635 16.263 18.515 16.363 18.415 Z M 23.633 18.415 C 23.733 18.515 23.833 18.635 23.913 18.745 C 24.413 19.415 24.883 20.575 24.333 22.355 L 23.223 26.125 C 23.563 26.325 23.993 26.435 24.423 26.435 C 25.273 26.435 26.073 26.025 26.273 25.405 L 27.343 21.755 C 28.003 19.645 26.733 18.355 24.423 18.355 C 24.143 18.355 23.883 18.375 23.633 18.415 Z" style="fill: rgb(0, 113, 161);"/>
  </g>
</svg>