<?xml version="1.0" encoding="utf-8"?>
<svg viewBox="0 0 40 40" xmlns="http://www.w3.org/2000/svg">
  <g fill="none" fill-rule="evenodd">
    <path d="M18.422 11h15.07c.84 0 1.508.669 1.508 1.493v18.014c0 .818-.675 1.493-1.508 1.493H6.508C5.668 32 5 31.331 5 30.507V9.493C5 8.663 5.671 8 6.5 8h7.805c.564 0 1.229.387 1.502.865l1.015 1.777s.4.358 1.6.358z" style="fill: rgb(1, 96, 135);"/>
    <path d="M 18.422 10 L 33.492000000000004 10 C 34.33200000000001 10 35.00000000000001 10.669 35.00000000000001 11.493 L 35.00000000000001 29.506999999999998 C 35.00000000000001 30.325 34.32500000000001 30.999999999999996 33.492000000000004 30.999999999999996 L 6.508 30.999999999999996 C 5.668 31 5 30.331 5 29.507 L 5 8.493 C 5 7.663 5.671 7 6.5 7 L 14.305 7 C 14.869 7 15.533999999999999 7.3870000000000005 15.807 7.865 L 16.822 9.642 C 16.822 9.642 17.221999999999998 10 18.422 10" style="fill: rgb(0, 113, 161);"/>
    <path d="M 18.422 9.5 L 33.492 9.5 C 34.013 9.521 34.578 9.75 34.913 10.083 C 35.249 10.416 35.478 10.979 35.5 11.493 L 35.5 29.507 C 35.478 30.019 35.247 30.581 34.911 30.915 C 34.575 31.248 34.011 31.478 33.492 31.5 L 6.508 31.5 C 5.987 31.479 5.422 31.25 5.087 30.917 C 4.751 30.584 4.522 30.021 4.5 29.507 L 4.5 8.493 C 4.522 7.976 4.752 7.413 5.087 7.08 C 5.422 6.748 5.984 6.521 6.5 6.5 L 14.305 6.5 C 14.995 6.534 15.877 7.047 16.241 7.617 L 17.206 9.306 C 17.233 9.319 17.179 9.293 17.341 9.35 C 17.448 9.389 17.566 9.421 17.746 9.451 C 17.935 9.481 18.502 9.506 18.502 9.506 C 18.484 9.504 18.283 10.479 18.253 10.471 C 18.253 10.471 17.283 10.392 17.003 10.292 C 16.665 10.171 16.489 10.015 16.489 10.015 L 16.436 9.975 L 16.388 9.89 L 15.373 8.113 C 15.191 7.727 14.743 7.466 14.305 7.5 L 6.5 7.5 C 6.187 7.479 5.999 7.584 5.791 7.79 C 5.584 7.996 5.478 8.18 5.5 8.493 L 5.5 29.507 C 5.478 29.817 5.583 30.001 5.791 30.208 C 6 30.415 6.189 30.521 6.508 30.5 L 33.492 30.5 C 33.806 30.522 33.996 30.414 34.206 30.205 C 34.416 29.997 34.522 29.813 34.5 29.507 L 34.5 11.493 C 34.522 11.183 34.417 10.999 34.209 10.792 C 34 10.585 33.811 10.479 33.492 10.5 L 18.422 10.5 Z" style=""/>
    <path d="M 20.513 19.938 C 18.488 19.938 18.078 16.869 18.078 16.869 C 17.837 15.272 18.568 13.47 20.487 13.47 C 22.414 13.47 23.145 15.272 22.904 16.869 C 22.904 16.869 22.539 19.938 20.513 19.938 M 20.513 22.231 L 22.94 20.607 C 25.072 20.607 26.973 22.686 26.973 24.649 L 26.973 26.87 C 26.973 26.87 23.716 27.878 20.513 27.878 C 17.257 27.878 14.054 26.87 14.054 26.87 L 14.054 24.649 C 14.054 22.641 15.785 20.652 18.042 20.652" style="fill: rgb(255, 255, 255);"/>
    <path d="M 20.513 20.438 C 19.9 20.414 19.322 20.166 18.946 19.832 C 18.571 19.498 18.274 19.026 18.082 18.614 C 17.696 17.779 17.584 16.944 17.584 16.944 C 17.463 16.072 17.602 15.046 18.044 14.312 C 18.491 13.573 19.387 12.97 20.487 12.97 C 21.591 12.97 22.489 13.572 22.936 14.312 C 23.38 15.045 23.521 16.057 23.401 16.928 C 23.401 16.928 23.3 17.773 22.924 18.608 C 22.739 19.021 22.448 19.495 22.076 19.83 C 21.889 19.998 21.637 20.166 21.388 20.269 C 21.142 20.37 20.703 20.4 20.703 20.4 C 20.682 20.407 20.597 20.173 20.513 19.938 Z M 20.323 19.476 C 20.323 19.476 20.323 19.476 20.324 19.476 C 20.323 19.475 20.323 19.476 20.323 19.476 Z M 21.007 19.344 C 21.166 19.278 21.274 19.206 21.407 19.087 C 21.673 18.847 21.853 18.553 22.012 18.199 C 22.326 17.5 22.408 16.81 22.408 16.81 C 22.528 16.084 22.424 15.396 22.081 14.83 C 21.741 14.269 21.31 13.97 20.487 13.97 C 19.668 13.97 19.239 14.268 18.901 14.829 C 18.558 15.396 18.452 16.069 18.572 16.794 C 18.572 16.794 18.665 17.493 18.99 18.193 C 19.154 18.548 19.34 18.844 19.611 19.085 C 19.881 19.326 20.114 19.462 20.513 19.438 L 20.513 19.449 C 20.679 19.424 20.909 19.384 21.007 19.344 Z M 20.235 21.815 L 22.793 20.104 L 22.94 20.107 C 24.121 20.135 25.318 20.721 26.115 21.544 C 26.913 22.367 27.449 23.561 27.473 24.649 L 27.473 27.24 L 27.121 27.348 C 27.121 27.348 23.79 28.378 20.513 28.378 C 17.182 28.378 13.904 27.347 13.904 27.347 L 13.554 27.237 L 13.554 24.649 C 13.575 23.546 14.065 22.363 14.84 21.552 C 15.228 21.146 15.734 20.778 16.26 20.539 C 16.784 20.301 17.835 20.197 17.835 20.197 C 17.882 20.181 18.123 21.139 18.15 21.14 C 18.137 21.141 17.566 21.177 17.331 21.23 C 17.094 21.282 16.891 21.351 16.673 21.449 C 16.24 21.646 15.89 21.901 15.563 22.243 C 14.908 22.928 14.533 23.744 14.554 24.649 L 14.554 26.495 C 15.456 26.747 17.332 27.378 20.513 27.378 C 23.642 27.378 25.561 26.749 26.473 26.495 L 26.473 24.649 C 26.497 23.774 26.082 22.947 25.397 22.24 C 24.711 21.532 23.98 21.128 23.092 21.107 L 20.791 22.647 Z M 18.15 21.14 C 18.15 21.14 18.15 21.14 18.15 21.14 C 18.15 21.14 18.15 21.14 18.15 21.14 Z" style=""/>
  </g>
</svg>
