<?xml version="1.0" encoding="utf-8"?>
<svg viewBox="0 0 40 40" xmlns="http://www.w3.org/2000/svg">
  <g fill="none" fill-rule="evenodd">
    <path d="M 18.422 11 L 33.492 11 C 34.332 11 35 11.669 35 12.493 L 35 30.507 C 35 31.325 34.325 32 33.492 32 L 6.508 32 C 5.668 32 5 31.331 5 30.507 L 5 9.493 C 5 8.663 5.671 8 6.5 8 L 14.305 8 C 14.869 8 15.534 8.387 15.807 8.865 L 16.822 10.642 C 16.822 10.642 17.222 11 18.422 11 Z M 22 12 L 18 12 L 15 14 L 12.06 14 C 11.47 14 11 14.47 11 15.06 L 11 26.87 C 11 27.46 11.47 28 12.06 28 L 27.94 28 C 28.53 28 29 27.46 29 26.87 L 29 15.06 C 29 14.47 28.53 14 27.94 14 L 25 14 Z M 16 21 C 16 18.79 17.79 17 20 17 C 22.21 17 24 18.79 24 21 C 24 23.21 22.21 25 20 25 C 17.79 25 16 23.21 16 21 Z" style="fill: rgb(1, 96, 135);"/>
    <path d="M 18.422 10 L 33.492 10 C 34.332 10 35 10.669 35 11.493 L 35 29.507 C 35 30.325 34.325 31 33.492 31 L 6.508 31 C 5.668 31 5 30.331 5 29.507 L 5 8.493 C 5 7.663 5.671 7 6.5 7 L 14.305 7 C 14.869 7 15.534 7.387 15.807 7.865 L 16.822 9.642 C 16.822 9.642 17.222 10 18.422 10 Z M 22 12 L 18 12 L 15 14 L 12.06 14 C 11.47 14 11 14.47 11 15.06 L 11 26.87 C 11 27.46 11.47 28 12.06 28 L 27.94 28 C 28.53 28 29 27.46 29 26.87 L 29 15.06 C 29 14.47 28.53 14 27.94 14 L 25 14 Z M 16 21 C 16 18.79 17.79 17 20 17 C 22.21 17 24 18.79 24 21 C 24 23.21 22.21 25 20 25 C 17.79 25 16 23.21 16 21 Z" style="fill: rgb(0, 113, 161); pointer-events: none;"/>
  </g>
</svg>