<?xml version="1.0" encoding="utf-8"?>
<svg viewBox="0 0 40 40" xmlns="http://www.w3.org/2000/svg">
  <g fill="none" fill-rule="evenodd">
    <path d="M 18.422 11 L 33.492 11 C 34.332 11 35 11.669 35 12.493 L 35 30.507 C 35 31.325 34.325 32 33.492 32 L 6.508 32 C 5.668 32 5 31.331 5 30.507 L 5 9.493 C 5 8.663 5.671 8 6.5 8 L 14.305 8 C 14.869 8 15.534 8.387 15.807 8.865 L 16.822 10.642 C 16.822 10.642 17.222 11 18.422 11 Z M 25 19 L 24 19 L 24 16 C 24 13.8 22.2 12 20 12 C 17.8 12 16 13.8 16 16 L 16 19 L 15 19 C 14.5 19 14 19.5 14 20 L 14 27 C 14 27.5 14.5 28 15 28 L 25 28 C 25.5 28 26 27.5 26 27 L 26 20 C 26 19.5 25.5 19 25 19 Z M 21 26 L 19 26 L 19.4 23.8 C 18.9 23.6 18.5 23 18.5 22.5 C 18.5 21.7 19.2 21 20 21 C 20.8 21 21.5 21.7 21.5 22.5 C 21.5 23.1 21.2 23.6 20.6 23.8 Z M 22 19 L 18 19 L 18 16 C 18 14.9 18.9 14 20 14 C 21.1 14 22 14.9 22 16 Z" style="fill: rgb(1, 96, 135);"/>
    <path d="M 18.422 10 L 33.492 10 C 34.332 10 35 10.669 35 11.493 L 35 29.507 C 35 30.325 34.325 31 33.492 31 L 6.508 31 C 5.668 31 5 30.331 5 29.507 L 5 8.493 C 5 7.663 5.671 7 6.5 7 L 14.305 7 C 14.869 7 15.534 7.387 15.807 7.865 L 16.822 9.642 C 16.822 9.642 17.222 10 18.422 10 Z M 25 19 L 24 19 L 24 16 C 24 13.8 22.2 12 20 12 C 17.8 12 16 13.8 16 16 L 16 19 L 15 19 C 14.5 19 14 19.5 14 20 L 14 27 C 14 27.5 14.5 28 15 28 L 25 28 C 25.5 28 26 27.5 26 27 L 26 20 C 26 19.5 25.5 19 25 19 Z M 21 26 L 19 26 L 19.4 23.8 C 18.9 23.6 18.5 23 18.5 22.5 C 18.5 21.7 19.2 21 20 21 C 20.8 21 21.5 21.7 21.5 22.5 C 21.5 23.1 21.2 23.6 20.6 23.8 Z M 22 19 L 18 19 L 18 16 C 18 14.9 18.9 14 20 14 C 21.1 14 22 14.9 22 16 Z" style="fill: rgb(0, 113, 161); pointer-events: none;"/>
  </g>
</svg>