<?xml version="1.0" encoding="utf-8"?>
<svg viewBox="0 0 40 40" xmlns="http://www.w3.org/2000/svg">
  <g fill="none" fill-rule="evenodd">
    <path d="M 18.422 11 L 33.492 11 C 34.332 11 35 11.669 35 12.493 L 35 30.507 C 35 31.325 34.325 32 33.492 32 L 6.508 32 C 5.668 32 5 31.331 5 30.507 L 5 9.493 C 5 8.663 5.671 8 6.5 8 L 14.305 8 C 14.869 8 15.534 8.387 15.807 8.865 L 16.822 10.642 C 16.822 10.642 17.222 11 18.422 11 Z M 19.919 11.897 C 14.949 11.897 10.919 15.926 10.919 20.897 C 10.919 25.867 14.949 29.897 19.919 29.897 C 24.89 29.897 28.919 25.867 28.919 20.897 C 28.919 15.926 24.89 11.897 19.919 11.897 Z M 12.029 21.577 L 14.539 21.577 C 14.578 22.487 14.706 23.391 14.919 24.277 L 12.759 24.277 C 12.356 23.428 12.109 22.513 12.029 21.577 Z M 20.599 16.177 L 20.599 13.087 C 21.563 13.453 22.355 14.166 22.819 15.087 C 23.024 15.434 23.205 15.794 23.359 16.167 Z M 23.819 17.527 C 24.051 18.41 24.188 19.315 24.229 20.227 L 20.599 20.227 L 20.599 17.527 Z M 19.239 13.087 L 19.239 16.177 L 16.479 16.177 C 16.633 15.804 16.814 15.444 17.019 15.097 C 17.482 14.173 18.274 13.455 19.239 13.087 Z M 19.239 17.527 L 19.239 20.227 L 15.619 20.227 C 15.66 19.315 15.797 18.41 16.029 17.527 Z M 14.539 20.217 L 12.029 20.217 C 12.109 19.28 12.356 18.366 12.759 17.517 L 14.919 17.517 C 14.706 18.402 14.578 19.307 14.539 20.217 Z M 15.619 21.577 L 19.239 21.577 L 19.239 24.277 L 16.029 24.277 C 15.797 23.394 15.66 22.489 15.619 21.577 Z M 19.249 25.577 L 19.249 28.667 C 18.285 28.301 17.494 27.587 17.029 26.667 C 16.824 26.32 16.643 25.959 16.489 25.587 Z M 20.599 25.627 L 23.359 25.627 C 23.205 25.999 23.024 26.36 22.819 26.707 C 22.355 27.627 21.563 28.341 20.599 28.707 Z M 20.599 24.227 L 20.599 21.527 L 24.219 21.527 C 24.178 22.439 24.041 23.344 23.809 24.227 Z M 25.309 21.527 L 27.819 21.527 C 27.739 22.463 27.492 23.378 27.089 24.227 L 24.919 24.227 C 25.129 23.357 25.257 22.47 25.299 21.577 Z M 25.309 20.177 C 25.263 19.283 25.133 18.396 24.919 17.527 L 27.079 17.527 C 27.482 18.376 27.729 19.29 27.809 20.227 Z M 24.519 16.177 C 24.195 15.267 23.726 14.416 23.129 13.657 C 24.373 14.215 25.454 15.083 26.269 16.177 Z M 16.709 13.657 C 16.112 14.416 15.643 15.267 15.319 16.177 L 13.569 16.177 C 14.384 15.083 15.465 14.215 16.709 13.657 Z M 15.319 25.657 C 15.643 26.566 16.112 27.418 16.709 28.177 C 15.472 27.615 14.4 26.748 13.591 25.657 Z M 24.509 25.657 L 26.269 25.657 C 25.456 26.727 24.388 27.574 23.161 28.123 C 23.738 27.377 24.193 26.544 24.509 25.657 Z" style="fill: rgb(1, 96, 135);"/>
    <path d="M 18.422 10 L 33.492 10 C 34.332 10 35 10.669 35 11.493 L 35 29.507 C 35 30.325 34.325 31 33.492 31 L 6.508 31 C 5.668 31 5 30.331 5 29.507 L 5 8.493 C 5 7.663 5.671 7 6.5 7 L 14.305 7 C 14.869 7 15.534 7.387 15.807 7.865 L 16.822 9.642 C 16.822 9.642 17.222 10 18.422 10 Z M 19.919 11.897 C 14.949 11.897 10.919 15.926 10.919 20.897 C 10.919 25.867 14.949 29.897 19.919 29.897 C 24.89 29.897 28.919 25.867 28.919 20.897 C 28.919 15.926 24.89 11.897 19.919 11.897 Z M 12.029 21.577 L 14.539 21.577 C 14.578 22.487 14.706 23.391 14.919 24.277 L 12.759 24.277 C 12.356 23.428 12.109 22.513 12.029 21.577 Z M 20.599 16.177 L 20.599 13.087 C 21.563 13.453 22.355 14.166 22.819 15.087 C 23.024 15.434 23.205 15.794 23.359 16.167 Z M 23.819 17.527 C 24.051 18.41 24.188 19.315 24.229 20.227 L 20.599 20.227 L 20.599 17.527 Z M 19.239 13.087 L 19.239 16.177 L 16.479 16.177 C 16.633 15.804 16.814 15.444 17.019 15.097 C 17.482 14.173 18.274 13.455 19.239 13.087 Z M 19.239 17.527 L 19.239 20.227 L 15.619 20.227 C 15.66 19.315 15.797 18.41 16.029 17.527 Z M 14.539 20.217 L 12.029 20.217 C 12.109 19.28 12.356 18.366 12.759 17.517 L 14.919 17.517 C 14.706 18.402 14.578 19.307 14.539 20.217 Z M 15.619 21.577 L 19.239 21.577 L 19.239 24.277 L 16.029 24.277 C 15.797 23.394 15.66 22.489 15.619 21.577 Z M 19.249 25.577 L 19.249 28.667 C 18.285 28.301 17.494 27.587 17.029 26.667 C 16.824 26.32 16.643 25.959 16.489 25.587 Z M 20.599 25.627 L 23.359 25.627 C 23.205 25.999 23.024 26.36 22.819 26.707 C 22.355 27.627 21.563 28.341 20.599 28.707 Z M 20.599 24.227 L 20.599 21.527 L 24.219 21.527 C 24.178 22.439 24.041 23.344 23.809 24.227 Z M 25.309 21.527 L 27.819 21.527 C 27.739 22.463 27.492 23.378 27.089 24.227 L 24.919 24.227 C 25.129 23.357 25.257 22.47 25.299 21.577 Z M 25.309 20.177 C 25.263 19.283 25.133 18.396 24.919 17.527 L 27.079 17.527 C 27.482 18.376 27.729 19.29 27.809 20.227 Z M 24.519 16.177 C 24.195 15.267 23.726 14.416 23.129 13.657 C 24.373 14.215 25.454 15.083 26.269 16.177 Z M 16.709 13.657 C 16.112 14.416 15.643 15.267 15.319 16.177 L 13.569 16.177 C 14.384 15.083 15.465 14.215 16.709 13.657 Z M 15.319 25.657 C 15.643 26.566 16.112 27.418 16.709 28.177 C 15.472 27.615 14.4 26.748 13.591 25.657 Z M 24.509 25.657 L 26.269 25.657 C 25.456 26.727 24.388 27.574 23.161 28.123 C 23.738 27.377 24.193 26.544 24.509 25.657 Z" style="fill: rgb(0, 113, 161); pointer-events: none;"/>
  </g>
</svg>