<?xml version="1.0" encoding="utf-8"?>
<svg viewBox="0 0 40 40" xmlns="http://www.w3.org/2000/svg">
  <g fill="none" fill-rule="evenodd">
    <path d="M 18.422 11 L 33.492 11 C 34.332 11 35 11.669 35 12.493 L 35 30.507 C 35 31.325 34.325 32 33.492 32 L 6.508 32 C 5.668 32 5 31.331 5 30.507 L 5 9.493 C 5 8.663 5.671 8 6.5 8 L 14.305 8 C 14.869 8 15.534 8.387 15.807 8.865 L 16.822 10.642 C 16.822 10.642 17.222 11 18.422 11 Z M 18.5 15 C 18.5 14.45 18.05 14 17.5 14 L 12.5 14 C 11.95 14 11.5 14.45 11.5 15 C 11.5 15.57 11.99 16 12.5 16 L 17.5 16 C 18.05 16 18.5 15.55 18.5 15 Z M 24.5 22 L 28.5 26 L 28.5 16 L 24.5 20 Z M 23.5 24 L 23.5 18 C 23.5 17.45 23.05 17 22.5 17 L 14.5 17 C 13.95 17 13.5 17.45 13.5 18 L 13.5 24 C 13.5 24.55 13.95 25 14.5 25 L 22.5 25 C 23.05 25 23.5 24.55 23.5 24 Z" style="fill: rgb(1, 96, 135);"/>
    <path d="M 18.422 10 L 33.492 10 C 34.332 10 35 10.669 35 11.493 L 35 29.507 C 35 30.325 34.325 31 33.492 31 L 6.508 31 C 5.668 31 5 30.331 5 29.507 L 5 8.493 C 5 7.663 5.671 7 6.5 7 L 14.305 7 C 14.869 7 15.534 7.387 15.807 7.865 L 16.822 9.642 C 16.822 9.642 17.222 10 18.422 10 Z M 18.5 15 C 18.5 14.45 18.05 14 17.5 14 L 12.5 14 C 11.95 14 11.5 14.45 11.5 15 C 11.5 15.57 11.99 16 12.5 16 L 17.5 16 C 18.05 16 18.5 15.55 18.5 15 Z M 24.5 22 L 28.5 26 L 28.5 16 L 24.5 20 Z M 23.5 24 L 23.5 18 C 23.5 17.45 23.05 17 22.5 17 L 14.5 17 C 13.95 17 13.5 17.45 13.5 18 L 13.5 24 C 13.5 24.55 13.95 25 14.5 25 L 22.5 25 C 23.05 25 23.5 24.55 23.5 24 Z" style="fill: rgb(0, 113, 161);"/>
  </g>
</svg>
